#!OML:ASF X:\für Bonn\!DataBase\2005_08_10_Bjorn_Final\c3d\bjorn.ASF
:FULLY-SPECIFIED
:DEGREES
183
root -21.4859 19.4441 0.162635 -182.166 -84.903 -173.131
lowerback -12.8714 2.71103 -0.701057
upperback 5.12647 4.05828 -2.70765
thorax 13.0737 1.9701 -1.62491
lowerneck -2.52082 -3.96242 4.1275
upperneck 23.5188 -6.81658 0.510688
head 7.53222 -3.15118 -1.04527
rclavicle 7.95139e-016 5.56597e-015
rhumerus -8.41316 -2.29735 -64.6215
rradius 117.208
rwrist -24.8949
rhand -12.9283 10.0204
rfingers 7.12502
rthumb 13.1623 -19.5441
lclavicle 7.95139e-016 5.56597e-015
lhumerus -26.4936 16.5197 78.2287
lradius 17.8404
lwrist -39.1708
lhand -16.1145 -6.22376
lfingers 7.12502
lthumb 10.0897 23.5143
rfemur -13.3266 -13.751 17.283
rtibia 25.4435
rfoot -6.72437 24.068
rtoes 7.42628
lfemur -10.4127 14.8376 -16.7735
ltibia 23.6457
lfoot -10.2258 -11.6641
ltoes 1.92808
184
root -21.4839 19.4442 0.159229 -182.076 -84.8202 -173.227
lowerback -12.8295 2.69707 -0.661903
upperback 5.15716 4.02646 -2.6546
thorax 13.0808 1.95597 -1.59735
lowerneck -2.51328 -3.94872 4.06946
upperneck 23.583 -6.80662 0.539969
head 7.55546 -3.1489 -1.02695
rclavicle 6.75868e-015 -1.43125e-014
rhumerus -8.52954 -2.22656 -64.6678
rradius 117.284
rwrist -24.998
rhand -12.8311 9.97749
rfingers 7.12502
rthumb 13.256 -19.581
lclavicle 6.75868e-015 -1.43125e-014
lhumerus -26.4423 16.2822 78.4312
lradius 17.9947
lwrist -38.8761
lhand -16.0981 -6.29452
lfingers 7.12502
lthumb 10.1055 23.4428
rfemur -13.3474 -13.8005 17.2949
rtibia 25.4548
rfoot -6.69097 24.1971
rtoes 7.39815
lfemur -10.3991 14.8606 -16.7655
ltibia 23.643
lfoot -10.231 -11.5906
ltoes 1.95397
185
root -21.4821 19.4441 0.155598 -182.143 -84.7613 -173.166
lowerback -12.792 2.67913 -0.610167
upperback 5.18489 3.98798 -2.60991
thorax 13.0886 1.94021 -1.58753
lowerneck -2.46187 -3.93868 4.06892
upperneck 23.6031 -6.7954 0.539549
head 7.55332 -3.14511 -1.0253
rclavicle 3.39922e-014 -1.43125e-014
rhumerus -8.65123 -2.12624 -64.7515
rradius 117.39
rwrist -25.0853
rhand -12.7179 9.91061
rfingers 7.12502
rthumb 13.3651 -19.6407
lclavicle 3.39922e-014 -1.43125e-014
lhumerus -26.3836 15.9565 78.6454
lradius 18.1534
lwrist -38.4921
lhand -16.0962 -6.28975
lfingers 7.12502
lthumb 10.1073 23.4475
rfemur -13.3617 -13.7975 17.3185
rtibia 25.4664
rfoot -6.63645 24.2537
rtoes 7.53628
lfemur -10.3896 14.8767 -16.742
ltibia 23.6426
lfoot -10.2421 -11.5374
ltoes 1.91692
186
root -21.4798 19.4434 0.151592 -182.048 -84.6802 -173.275
lowerback -12.7492 2.67884 -0.562342
upperback 5.22578 3.97676 -2.5913
thorax 13.1114 1.938 -1.5979
lowerneck -2.47362 -3.93396 4.11937
upperneck 23.6493 -6.80328 0.548789
head 7.56978 -3.14385 -1.03268
rclavicle -3.93594e-014 2.70347e-014
rhumerus -8.75113 -2.06719 -64.8729
rradius 117.474
rwrist -25.1936
rhand -12.6242 9.85172
rfingers 7.12502
rthumb 13.4554 -19.6937
lclavicle -3.93594e-014 2.70347e-014
lhumerus -26.275 15.642 78.8179
lradius 18.2878
lwrist -38.1756
lhand -16.083 -6.35006
lfingers 7.12502
lthumb 10.1201 23.3866
rfemur -13.3752 -13.8044 17.3303
rtibia 25.4827
rfoot -6.60382 24.3417
rtoes 7.52756
lfemur -10.3698 14.909 -16.7306
ltibia 23.6408
lfoot -10.2597 -11.4633
ltoes 1.92236
187
root -21.4778 19.4431 0.148686 -182.14 -84.6052 -173.204
lowerback -12.6936 2.66756 -0.50707
upperback 5.26018 3.94627 -2.54702
thorax 13.1164 1.92633 -1.58924
lowerneck -2.46057 -3.92355 4.10579
upperneck 23.7053 -6.79736 0.559078
head 7.58718 -3.14167 -1.02774
rclavicle -3.18055e-015 -1.98785e-014
rhumerus -8.854 -1.96615 -64.9444
rradius 117.555
rwrist -25.2228
rhand -12.5547 9.8122
rfingers 7.12502
rthumb 13.5224 -19.7287
lclavicle -3.18055e-015 -1.98785e-014
lhumerus -26.1873 15.2961 79.0369
lradius 18.41
lwrist -37.7411
lhand -16.1072 -6.35612
lfingers 7.12502
lthumb 10.0968 23.3816
rfemur -13.3785 -13.8424 17.3527
rtibia 25.4979
rfoot -6.55054 24.4466
rtoes 7.58581
lfemur -10.3415 14.9222 -16.7037
ltibia 23.6402
lfoot -10.2771 -11.3924
ltoes 1.88825
188
root -21.4761 19.4428 0.145357 -182.072 -84.5305 -173.285
lowerback -12.6551 2.66658 -0.449238
upperback 5.30289 3.93273 -2.53085
thorax 13.1448 1.924 -1.60827
lowerneck -2.47676 -3.92162 4.14504
upperneck 23.7636 -6.81024 0.571723
head 7.60893 -3.14323 -1.03293
rclavicle -1.27222e-014 -3.49861e-014
rhumerus -8.92029 -1.91596 -65.0612
rradius 117.576
rwrist -25.0826
rhand -12.4974 9.80594
rfingers 7.12502
rthumb 13.5777 -19.7313
lclavicle -1.27222e-014 -3.49861e-014
lhumerus -26.0783 14.9558 79.2148
lradius 18.5291
lwrist -37.3858
lhand -16.126 -6.38254
lfingers 7.12502
lthumb 10.0786 23.3561
rfemur -13.3887 -13.8863 17.3618
rtibia 25.5086
rfoot -6.5066 24.5614
rtoes 7.54471
lfemur -10.3232 14.9355 -16.6944
ltibia 23.6433
lfoot -10.306 -11.3219
ltoes 1.77358
189
root -21.4738 19.4427 0.142215 -181.998 -84.4645 -173.374
lowerback -12.6005 2.64782 -0.4053
upperback 5.33717 3.89502 -2.49485
thorax 13.1499 1.90834 -1.60408
lowerneck -2.50552 -3.9096 4.13482
upperneck 23.8557 -6.80458 0.569195
head 7.64524 -3.14083 -1.0348
rclavicle 2.08724e-014 7.15625e-015
rhumerus -8.98368 -1.81385 -65.1392
rradius 117.586
rwrist -24.93
rhand -12.4806 9.85292
rfingers 7.12502
rthumb 13.5938 -19.6833
lclavicle 2.08724e-014 7.15625e-015
lhumerus -26.0124 14.6568 79.4068
lradius 18.6687
lwrist -37.0057
lhand -16.1509 -6.40522
lfingers 7.12502
lthumb 10.0546 23.3346
rfemur -13.3915 -13.8228 17.3673
rtibia 25.5184
rfoot -6.48066 24.5675
rtoes 7.64201
lfemur -10.307 14.9931 -16.6881
ltibia 23.6479
lfoot -10.3295 -11.2863
ltoes 1.63022
190
root -21.4717 19.4432 0.139712 -182.224 -84.396 -173.162
lowerback -12.557 2.62611 -0.336901
upperback 5.37982 3.84784 -2.44364
thorax 13.1716 1.8895 -1.59852
lowerneck -2.52462 -3.89753 4.14163
upperneck 23.9315 -6.79051 0.53139
head 7.67247 -3.13627 -1.04966
rclavicle -4.75095e-014 2.38542e-015
rhumerus -9.03329 -1.69232 -65.1937
rradius 117.588
rwrist -24.7394
rhand -12.5094 9.91609
rfingers 7.12502
rthumb 13.5661 -19.6219
lclavicle -4.75095e-014 2.38542e-015
lhumerus -25.9185 14.4083 79.6023
lradius 18.7681
lwrist -36.6677
lhand -16.2015 -6.41058
lfingers 7.12502
lthumb 10.0058 23.3316
rfemur -13.4004 -13.8854 17.406
rtibia 25.5277
rfoot -6.41146 24.6877
rtoes 7.71665
lfemur -10.2918 14.9242 -16.6519
ltibia 23.6527
lfoot -10.3657 -11.1409
ltoes 1.5837
